<svg width="24" height="25" viewBox="0 0 24 25" fill="none" xmlns="http://www.w3.org/2000/svg">
<path fill-rule="evenodd" clip-rule="evenodd" d="M5.079 5.56901C8.874 1.77901 15.044 1.81901 18.862 5.63801C22.682 9.45801 22.722 15.631 18.926 19.426C15.13 23.221 8.958 23.182 5.138 19.362C4.06337 18.292 3.25143 16.9875 2.76595 15.5508C2.28047 14.1142 2.13467 12.5845 2.34 11.082C2.36692 10.8848 2.47107 10.7064 2.62954 10.586C2.78801 10.4656 2.98781 10.4131 3.185 10.44C3.38219 10.4669 3.56061 10.5711 3.68101 10.7295C3.8014 10.888 3.85392 11.0878 3.827 11.285C3.65268 12.5583 3.77608 13.8547 4.18749 15.0723C4.59889 16.2898 5.2871 17.3954 6.198 18.302C9.443 21.546 14.666 21.565 17.866 18.366C21.065 15.166 21.046 9.94301 17.802 6.69801C14.559 3.45601 9.339 3.43501 6.139 6.63001L6.887 6.63301C6.98549 6.63347 7.08293 6.65332 7.17375 6.69144C7.26456 6.72955 7.34699 6.78518 7.41631 6.85515C7.48562 6.92512 7.54048 7.00806 7.57775 7.09923C7.61502 7.1904 7.63396 7.28801 7.6335 7.38651C7.63304 7.485 7.61319 7.58243 7.57507 7.67325C7.53695 7.76407 7.48132 7.84649 7.41136 7.91581C7.34139 7.98513 7.25845 8.03999 7.16728 8.07726C7.07611 8.11452 6.97849 8.13347 6.88 8.13301L4.334 8.12101C4.1363 8.11995 3.94701 8.04088 3.80731 7.90099C3.66761 7.7611 3.58879 7.57171 3.588 7.37401L3.575 4.83001C3.57447 4.73151 3.59335 4.63388 3.63056 4.54269C3.66777 4.45149 3.72257 4.36852 3.79184 4.2985C3.86111 4.22849 3.9435 4.1728 4.03429 4.13463C4.12508 4.09645 4.22251 4.07653 4.321 4.07601C4.41949 4.07548 4.51712 4.09436 4.60832 4.13157C4.69951 4.16877 4.78249 4.22358 4.8525 4.29285C4.92252 4.36212 4.9782 4.4445 5.01638 4.5353C5.05456 4.62609 5.07447 4.72351 5.075 4.82201L5.079 5.56901ZM11.999 7.74901C12.1979 7.74901 12.3887 7.82802 12.5293 7.96868C12.67 8.10933 12.749 8.30009 12.749 8.49901V12.189L15.03 14.469C15.1017 14.5382 15.1588 14.6209 15.1982 14.7124C15.2375 14.8039 15.2583 14.9023 15.2592 15.0018C15.2601 15.1014 15.2412 15.2002 15.2035 15.2924C15.1658 15.3846 15.1102 15.4683 15.0398 15.5388C14.9694 15.6092 14.8857 15.665 14.7935 15.7027C14.7014 15.7405 14.6026 15.7595 14.5031 15.7587C14.4035 15.7579 14.305 15.7372 14.2135 15.698C14.122 15.6587 14.0392 15.6016 13.97 15.53L11.25 12.81V8.50001C11.25 8.30109 11.329 8.11033 11.4697 7.96968C11.6103 7.82902 11.8011 7.75001 12 7.75001" fill="currentColor"/>
</svg>
